<?xml version="1.0" encoding="UTF-8"?><svg id="Layer_1" xmlns="http://www.w3.org/2000/svg" viewBox="0 0 485.251 217.715"><defs><style>.cls-1{fill:#433538;}.cls-1,.cls-2,.cls-3,.cls-4,.cls-5,.cls-6,.cls-7{fill-rule:evenodd;}.cls-1,.cls-2,.cls-3,.cls-4,.cls-5,.cls-6,.cls-7,.cls-8{stroke-width:0px;}.cls-2{fill:#2d323a;}.cls-3{fill:#263955;}.cls-4{fill:#5ecbf2;}.cls-5{fill:#7d96bd;}.cls-6{fill:#b6d5ea;}.cls-7{fill:#9fccee;}.cls-8{fill:#ccc9cb;}</style></defs><path class="cls-1" d="m160.263,132.685s3.264,1.84,7.845.261c-2.217,1.562-5.564,1.977-7.845-.261"/><path class="cls-8" d="m232.234,90.248c-.053.052.077-.025.387-.232.31-.206.465-.283.465-.232-.259.723-.607,1.42-1.045,2.09-.439.671-.865,1.368-1.277,2.09-.878,1.857-1.691,3.703-2.438,5.534-.748,1.832-1.483,3.729-2.206,5.688-.206.568-.387,1.11-.542,1.626-.154.517-.336,1.058-.541,1.625-.259.724-.53,1.445-.813,2.168-.284.723-.478,1.47-.58,2.244,0,.104-.22.31-.658.619s-.685.465-.735.465c-.259-.413-.541-.774-.851-1.084-.311-.31-.569-.696-.774-1.161-.155-.412-.207-.852-.155-1.315.051-.465.104-.929.155-1.394.154-1.084.426-2.257.812-3.521.387-1.264.877-2.516,1.471-3.754.593-1.239,1.226-2.425,1.896-3.561.67-1.134,1.341-2.115,2.013-2.941-.878.671-1.755,1.316-2.632,1.935-.878.619-1.832,1.11-2.864,1.471-.464.155-.903.232-1.315.232-.517,0-.968-.141-1.354-.425-.387-.283-.724-.631-1.006-1.045-.285-.413-.491-.864-.62-1.354-.129-.49-.245-.968-.348-1.432-.104-.31-.143-.503-.116-.581.025-.077.09-.193.193-.348-.414.104-.839.22-1.277.348-.438.129-.89.246-1.354.349-.517.104-1.02.22-1.509.348-.491.129-.994.271-1.51.426-.052.104-.091.193-.116.271-.026.077-.065.168-.116.271-.259.981-.31,1.974-.154,2.98.154,1.006.335,2,.542,2.98.205,1.032.387,2.039.541,3.019.155.98.361,1.986.62,3.019.412,2.167.954,4.257,1.625,6.27.67,2.012,1.394,4.024,2.167,6.037.31.878.632,1.78.968,2.709.335.929.631,1.832.89,2.709.258.773.413,1.562.465,2.36.051.801.18,1.587.387,2.361.36,1.445.129,2.684-.696,3.715-.826,1.033-1.755,1.987-2.786,2.864-1.033.878-2.117,1.755-3.251,2.631-1.136.878-2.297,1.626-3.483,2.245-.361.205-.658.335-.89.387-.232.051-.478.077-.735.077-2.529,0-5.006-.657-7.431-1.974-2.426-1.315-4.594-2.747-6.502-4.296-.258-.257-.515-.503-.773-.734-.258-.232-.516-.451-.774-.658-.825,1.29-1.664,2.554-2.516,3.793-.852,1.238-1.715,2.502-2.593,3.792-.103.206-.31.387-.619.542-.31.154-.516.283-.619.387.773-1.445,1.445-2.928,2.013-4.45.568-1.521,1.109-3.058,1.625-4.605.104-.154.168-.31.193-.465.026-.154.091-.31.193-.464-.051,0-.089-.012-.116-.039-.025-.025-.063-.038-.115-.038.104,0,.206-.051.31-.155.464-1.341.967-2.695,1.509-4.063.542-1.366,1.097-2.721,1.664-4.063.207-.722.426-1.238.658-1.548s.631-.67,1.199-1.084c1.135-1.031,2.348-1.96,3.639-2.786-.053.052-.027.039.077-.039.103-.077.219-.154.348-.231.129-.078.322-.167.581-.271-.155.826-.414,1.729-.774,2.709-.361.981-.748,1.974-1.161,2.98-.413,1.006-.864,1.986-1.354,2.94-.49.956-.941,1.794-1.354,2.516-.206.362-.4.697-.58,1.007-.182.31-.375.646-.581,1.006,1.651.104,3.225.375,4.722.812,1.496.439,3.069,1.098,4.722,1.974,1.444.774,2.928,1.459,4.45,2.052,1.521.594,3.108.762,4.761.503.412-.825.722-1.626.929-2.399.205-.774.258-1.626.154-2.555-.259-1.96-.839-3.805-1.741-5.534-.903-1.728-1.769-3.495-2.593-5.302-.774-1.857-1.548-3.728-2.322-5.611-.773-1.883-1.445-3.779-2.013-5.689-.259-.824-.503-1.676-.735-2.554-.231-.877-.387-1.767-.464-2.67-.077-.902-.039-1.793.116-2.671.154-.876.464-1.703.929-2.477.412-.67,1.122-1.509,2.129-2.516,1.006-1.006,2.115-1.974,3.328-2.902,1.212-.929,2.45-1.742,3.715-2.438,1.264-.696,2.334-1.07,3.212-1.122.31-.051.632-.064.968-.039.335.027.684.116,1.045.271.258.104.465.284.619.542.051-.051.09-.078.116-.078.025,0,.064-.025.116-.077.31-.206.696-.49,1.161-.852.464-.36.902-.542,1.315-.542.206,0,.438.116.696.348.258.232.438.4.542.503.155.207.297.414.426.619.128.207.244.439.349.697.258.414.58.787.968,1.123.387.336.863.529,1.432.58.36,0,.709-.051,1.045-.155.335-.103.683-.206,1.045-.31.103-.103.18-.155.232-.155.154-.155.31-.296.464-.426.155-.128.31-.271.465-.425.103-.051.205-.128.31-.232l.077-.077c.103-.051.18-.103.232-.155.051-.051.128-.103.232-.155.619-.567,1.238-1.031,1.857-1.393Z"/><path class="cls-8" d="m275.963,88.546c.104.259.078.594-.077,1.006-.154.414-.349.826-.58,1.239-.232.414-.465.826-.697,1.238-.232.414-.4.749-.503,1.006-.464.878-.903,1.793-1.315,2.748-.414.956-.826,1.896-1.238,2.825-.724,1.755-1.42,3.509-2.09,5.263-.672,1.755-1.343,3.535-2.013,5.341-.052.104-.13.31-.232.619.567-.051,1.161-.077,1.78-.077s1.135.104,1.548.31c.567.206.852.4.852.58,0,.182-.154.452-.465.812-.568.568-1.29.981-2.167,1.239-.878.259-1.755.438-2.632.541-.413,1.238-.825,2.49-1.238,3.754-.413,1.266-.773,2.542-1.083,3.832-.31,1.083-.724,2.451-1.238,4.102-.517,1.652-1.059,3.355-1.626,5.108-.568,1.755-1.122,3.458-1.664,5.108-.542,1.652-.994,3.02-1.354,4.103,0,.052-.154.207-.464.465-.311.259-.491.361-.542.31-.724-.516-1.123-1.433-1.2-2.748s0-2.748.232-4.296.516-3.058.852-4.527c.335-1.471.554-2.594.658-3.367.257-1.754.605-3.495,1.045-5.225.438-1.729.915-3.418,1.432-5.07.103-.205.167-.387.193-.541.025-.155.09-.335.193-.542-1.652.154-3.289.323-4.915.503-1.625.182-3.264.375-4.915.58l-10.217,1.161c-.929,2.064-2.025,4.4-3.289,7.005-1.266,2.606-2.567,5.264-3.909,7.973s-2.67,5.354-3.986,7.934c-1.315,2.579-2.516,4.876-3.599,6.889,0,.051-.039.089-.116.116-.077.025-.116.063-.116.116.465-2.013,1.136-4.296,2.013-6.851.878-2.554,1.793-5.159,2.747-7.817.955-2.657,1.909-5.25,2.864-7.778.954-2.528,1.767-4.772,2.438-6.734-.104.052-.221.077-.349.077-.13,0-.271.027-.426.078l-2.554.696c-.259.104-.479.182-.658.232-.182.052-.4.129-.658.232-.259.104-.464.181-.619.231-.154.053-.284.104-.387.155l-.31.154.154-.387c.206-.36.516-.684.929-.968.413-.282.774-.554,1.084-.812.774-.67,1.612-1.405,2.516-2.206.902-.799,1.844-1.405,2.825-1.818,1.031-2.734,2.102-5.457,3.212-8.166,1.109-2.709,2.257-5.405,3.444-8.088.206-.464.399-.941.58-1.432.181-.49.194-.993.039-1.509-.052-.206-.168-.399-.349-.581-.181-.18-.336-.36-.464-.542-.13-.18-.207-.36-.232-.542-.026-.18.039-.399.193-.658.31-.413.761-.838,1.354-1.277.593-.438,1.226-.838,1.896-1.2.67-.36,1.342-.631,2.013-.812.67-.18,1.264-.193,1.78-.039.722.155,1.108.542,1.161,1.161.051.619-.053,1.304-.31,2.051-.259.749-.568,1.484-.929,2.206-.362.723-.62,1.291-.774,1.703-1.084,2.684-2.181,5.341-3.29,7.972-1.109,2.632-2.258,5.264-3.444,7.896,2.168-.465,4.36-.786,6.579-.968,2.219-.181,4.438-.219,6.657-.116.929.052,1.869.091,2.825.116.954.026,1.896.065,2.824.116.361-.877.709-1.754,1.045-2.632.336-.877.684-1.754,1.045-2.632.774-1.806,1.574-3.663,2.399-5.573.825-1.908,1.831-3.611,3.02-5.108.67-.825,1.457-1.573,2.36-2.245.902-.67,1.767-1.289,2.593-1.857.258-.206.581-.426.968-.658.387-.232.631-.348.735-.348l.154-.155Z"/><path class="cls-8" d="m293.07,87.539c.567,0,.891.039.968.116.077.077.064.4-.039.967-.259,1.291-.71,2.62-1.354,3.986-.646,1.368-1.226,2.645-1.741,3.831-.568,1.343-1.097,2.684-1.587,4.025-.491,1.342-1.02,2.684-1.587,4.025-2.477,6.037-5.005,12.023-7.585,17.957-2.581,5.935-5.418,11.765-8.514,17.492-.051.104-.167.194-.349.271-.181.077-.271.143-.271.193.104-1.96.348-3.856.735-5.688.387-1.831.864-3.728,1.432-5.689,1.496-5.264,3.224-10.552,5.186-15.867,1.961-5.314,4.051-10.475,6.27-15.48.103-.155.244-.399.426-.735.18-.335.374-.684.58-1.045.206-.36.374-.709.504-1.045.128-.335.166-.606.115-.813-.154-.155-.31-.296-.464-.425-.155-.128-.31-.271-.465-.426-.825-.567-.619-1.212.619-1.935.104-.155.283-.335.542-.542.258-.206.516-.387.774-.542.619-.464,1.25-.916,1.896-1.354.645-.438,1.354-.786,2.128-1.045.619-.155,1.212-.232,1.78-.232Z"/><path class="cls-8" d="m339.354,86.146c.567,0,1.084.065,1.549.193.464.129.979.271,1.548.426l-.077.077c-.104.104-.182.155-.232.155-3.251.259-6.142.981-8.669,2.167-2.529,1.188-4.773,2.697-6.734,4.528-1.961,1.833-3.741,3.936-5.34,6.308-1.601,2.374-3.097,4.876-4.489,7.508-2.22,4.335-4.077,8.824-5.573,13.468-1.497,4.645-2.786,9.393-3.87,14.242-.155.671-.568,1.251-1.238,1.741-.671.491-1.213.942-1.626,1.354-.104.052-.348.207-.735.465-.387.259-.773.541-1.16.851-.388.31-.749.594-1.084.852-.336.258-.503.413-.503.465.051-1.444.103-2.851.154-4.219.051-1.366.155-2.721.31-4.063.051-.36.104-.684.155-.968.051-.282.128-.58.232-.89l-.232-2.555c-.259-1.702-.517-3.405-.774-5.108-.259-1.702-.542-3.405-.852-5.108-.361-1.65-.762-3.302-1.199-4.953-.439-1.651-.839-3.302-1.2-4.954-2.167,6.451-4.695,12.694-7.585,18.731-2.889,6.037-6.243,11.739-10.062,17.105-.051.103-.142.193-.271.271-.128.078-.219.142-.271.193.413-1.857,1.006-3.638,1.78-5.34.773-1.703,1.497-3.432,2.167-5.187,1.807-4.54,3.548-9.106,5.225-13.699,1.676-4.593,3.186-9.236,4.527-13.933.361-1.084.723-2.18,1.084-3.289.36-1.109.67-2.257.929-3.445.258-.979.283-1.908.077-2.786-.104-.567-.231-1.032-.387-1.394-.154-.36-.052-.799.31-1.316.155-.257.426-.58.812-.967.388-.387.813-.774,1.277-1.161.465-.387.941-.708,1.432-.967.49-.258.941-.387,1.354-.387.93,0,1.496.749,1.703,2.245.103.723.09,1.458-.038,2.206-.13.749-.323,1.484-.581,2.206.103.104.181.22.232.348.051.129.128.271.232.426.929,2.529,1.806,5.057,2.631,7.585s1.549,5.108,2.168,7.74c.773,3.354,1.006,6.656.696,9.907,2.373-6.243,5.25-12.101,8.63-17.57,3.379-5.469,7.701-10.32,12.965-14.551,1.394-1.187,3.031-2.309,4.915-3.367,1.883-1.057,3.779-1.586,5.688-1.586Z"/><path class="cls-8" d="m348.332,91.1c.412.207.709.478.891.812.18.336.271.697.271,1.083s-.039.788-.116,1.2c-.077.414-.168.826-.271,1.238-.724,3.87-1.871,7.946-3.444,12.229-1.575,4.283-3.458,8.475-5.65,12.577-2.194,4.103-4.645,7.96-7.354,11.571-2.709,3.612-5.586,6.709-8.63,9.288-1.136.979-2.322,1.974-3.561,2.98-1.238,1.006-2.542,1.922-3.908,2.747-1.367.825-2.773,1.496-4.219,2.013-1.444.516-2.941.774-4.489.774-.877,0-1.883-.13-3.019-.388.052,0,.143-.09.271-.271.13-.182.246-.271.349-.271,3.922-.465,7.663-1.575,11.224-3.328.876-.414,1.611-.801,2.205-1.161.593-.362,1.148-.763,1.664-1.2.516-.438,1.007-.929,1.471-1.471.465-.542,1.007-1.199,1.626-1.974,1.753-2.27,3.418-4.722,4.992-7.353,1.573-2.632,3.044-5.354,4.412-8.166,1.366-2.812,2.604-5.65,3.715-8.515,1.109-2.863,2.051-5.662,2.825-8.397.412-1.394.877-2.851,1.394-4.373.515-1.521.824-3.005.929-4.451.051-.567.025-1.07-.078-1.509-.104-.438-.438-.786-1.006-1.045-.154-.103-.375-.155-.658-.155s-.529-.039-.735-.116c-.206-.077-.348-.193-.425-.348-.078-.155.012-.387.271-.697.103-.155.232-.296.387-.426.155-.128.31-.271.465-.426-.672.104-1.343.194-2.013.271-.671.078-1.368.168-2.09.271-.723.052-1.458.091-2.206.116-.748.026-1.509.013-2.283-.039h-1.083c-.362,0-.724-.026-1.084-.078-.259,0-.478-.012-.658-.039-.182-.025-.4-.039-.658-.039-.154-.051-.361-.077-.619-.077-1.497-.155-1.032-.645,1.394-1.471.774-.619,1.535-1.25,2.283-1.896.748-.645,1.51-1.277,2.283-1.896,1.394.155,2.812.232,4.258.232,1.805,0,3.56-.089,5.263-.271,1.703-.181,3.431-.451,5.186-.813.155-.051.322-.089.504-.116.18-.025.348-.064.503-.116.103,0,.193-.012.271-.039.077-.025.167-.039.271-.039-.981.929-1.214,1.316-.697,1.161-.259.31-.555.594-.89.851-.336.259-.658.517-.968.774-.207.207-.361.336-.464.387.67,0,1.238.129,1.702.387Z"/><path class="cls-8" d="m367.141,87.539c.567,0,.891.039.968.116.077.077.064.4-.039.967-.259,1.291-.71,2.62-1.354,3.986-.646,1.368-1.226,2.645-1.741,3.831-.568,1.343-1.097,2.684-1.587,4.025-.491,1.342-1.02,2.684-1.587,4.025-2.477,6.037-5.005,12.023-7.585,17.957-2.581,5.935-5.418,11.765-8.514,17.492-.051.104-.167.194-.349.271-.181.077-.271.143-.271.193.104-1.96.348-3.856.735-5.688.387-1.831.864-3.728,1.432-5.689,1.496-5.264,3.224-10.552,5.186-15.867,1.961-5.314,4.051-10.475,6.27-15.48.103-.155.244-.399.426-.735.18-.335.374-.684.58-1.045.206-.36.374-.709.504-1.045.128-.335.166-.606.115-.813-.154-.155-.31-.296-.464-.425-.155-.128-.31-.271-.465-.426-.825-.567-.619-1.212.619-1.935.104-.155.283-.335.542-.542.258-.206.516-.387.774-.542.619-.464,1.25-.916,1.896-1.354.645-.438,1.354-.786,2.128-1.045.619-.155,1.212-.232,1.78-.232Z"/><path class="cls-8" d="m408.24,90.016c.206,0,.645-.012,1.316-.039.67-.025,1.366-.039,2.09-.039s1.38.039,1.974.116c.592.077.915.22.967.426.104.207.025.452-.231.735-.259.284-.414.452-.465.503-.155.104-.298.232-.426.387-.129.155-.271.31-.426.464-.723.671-1.548,1.419-2.477,2.245-.929.826-1.885,1.393-2.864,1.703-.31.104-.657.116-1.045.039-.387-.077-.773-.193-1.161-.348-.387-.155-.773-.335-1.16-.542-.388-.206-.735-.335-1.045-.387-1.755-.36-3.51-.606-5.264-.735-1.755-.128-3.535-.219-5.341-.271-.052.362-.129.723-.232,1.083-.104.362-.206.697-.31,1.006-.878,2.322-1.818,4.594-2.825,6.812-1.006,2.219-2.025,4.464-3.057,6.733-2.529,5.522-5.161,10.966-7.896,16.332-2.735,5.367-5.649,10.681-8.746,15.944-.052.103-.168.193-.348.271-.182.078-.298.167-.349.271.205-.929.387-1.846.542-2.748.154-.902.36-1.818.619-2.748.31-.929.645-1.857,1.006-2.786.36-.929.696-1.857,1.006-2.786,1.651-4.282,3.354-8.54,5.109-12.771,1.753-4.23,3.56-8.437,5.418-12.616.412-.929.863-1.87,1.354-2.825.489-.954.863-1.922,1.122-2.902.31-.979.31-1.909,0-2.787-.104-.36-.232-.658-.387-.89-.155-.232-.271-.451-.349-.658-.077-.206-.052-.451.077-.735.128-.283.451-.631.968-1.045h-.077c-.878.052-1.717.104-2.516.155-.801.052-1.639.129-2.516.232-.929.104-1.871.22-2.825.348-.955.129-1.896.246-2.825.348-.878.104-1.729.116-2.555.039-.825-.078-1.651-.012-2.477.193.051-.051.103-.078.155-.078,1.289-.412,2.541-.863,3.754-1.354,1.212-.49,2.463-.941,3.754-1.354,2.889-.929,5.933-1.599,9.133-2.012,3.199-.413,6.295-.697,9.288-.852,2.115-.103,4.205-.167,6.27-.193,2.063-.025,4.153.013,6.27.116Z"/><path class="cls-8" d="m442.76,90.248c-.053.052.077-.025.387-.232.31-.206.465-.283.465-.232-.259.723-.607,1.42-1.045,2.09-.439.671-.865,1.368-1.277,2.09-.878,1.857-1.691,3.703-2.438,5.534-.748,1.832-1.483,3.729-2.206,5.688-.206.568-.387,1.11-.542,1.626-.154.517-.336,1.058-.541,1.625-.259.724-.53,1.445-.813,2.168-.284.723-.478,1.47-.58,2.244,0,.104-.22.31-.658.619s-.685.465-.735.465c-.259-.413-.541-.774-.851-1.084-.311-.31-.569-.696-.774-1.161-.155-.412-.207-.852-.155-1.315.051-.465.104-.929.155-1.394.154-1.084.426-2.257.812-3.521.387-1.264.877-2.516,1.471-3.754.593-1.239,1.226-2.425,1.896-3.561.67-1.134,1.341-2.115,2.013-2.941-.878.671-1.755,1.316-2.632,1.935-.878.619-1.832,1.11-2.864,1.471-.464.155-.903.232-1.315.232-.517,0-.968-.141-1.354-.425-.387-.283-.724-.631-1.006-1.045-.285-.413-.491-.864-.62-1.354-.129-.49-.245-.968-.348-1.432-.104-.31-.143-.503-.116-.581.025-.077.09-.193.193-.348-.414.104-.839.22-1.277.348-.438.129-.89.246-1.354.349-.517.104-1.02.22-1.509.348-.491.129-.994.271-1.51.426-.052.104-.091.193-.116.271-.026.077-.065.168-.116.271-.259.981-.31,1.974-.154,2.98.154,1.006.335,2,.542,2.98.205,1.032.387,2.039.541,3.019.155.98.361,1.986.62,3.019.412,2.167.954,4.257,1.625,6.27.67,2.012,1.394,4.024,2.167,6.037.31.878.632,1.78.968,2.709.335.929.631,1.832.89,2.709.258.773.413,1.562.465,2.36.051.801.18,1.587.387,2.361.36,1.445.129,2.684-.696,3.715-.826,1.033-1.755,1.987-2.786,2.864-1.033.878-2.117,1.755-3.251,2.631-1.136.878-2.297,1.626-3.483,2.245-.361.205-.658.335-.89.387-.232.051-.478.077-.735.077-2.529,0-5.006-.657-7.431-1.974-2.426-1.315-4.594-2.747-6.502-4.296-.258-.257-.515-.503-.773-.734-.258-.232-.516-.451-.774-.658-.825,1.29-1.664,2.554-2.516,3.793-.852,1.238-1.715,2.502-2.593,3.792-.103.206-.31.387-.619.542-.31.154-.516.283-.619.387.773-1.445,1.445-2.928,2.013-4.45.568-1.521,1.109-3.058,1.625-4.605.104-.154.168-.31.193-.465.026-.154.091-.31.193-.464-.051,0-.089-.012-.116-.039-.025-.025-.063-.038-.115-.038.104,0,.206-.051.31-.155.464-1.341.967-2.695,1.509-4.063.542-1.366,1.097-2.721,1.664-4.063.207-.722.426-1.238.658-1.548s.631-.67,1.199-1.084c1.135-1.031,2.348-1.96,3.639-2.786-.053.052-.027.039.077-.039.103-.077.219-.154.348-.231.129-.078.322-.167.581-.271-.155.826-.414,1.729-.774,2.709-.361.981-.748,1.974-1.161,2.98-.413,1.006-.864,1.986-1.354,2.94-.49.956-.941,1.794-1.354,2.516-.206.362-.4.697-.58,1.007-.182.31-.375.646-.581,1.006,1.651.104,3.225.375,4.722.812,1.496.439,3.069,1.098,4.722,1.974,1.444.774,2.928,1.459,4.45,2.052,1.521.594,3.108.762,4.761.503.412-.825.722-1.626.929-2.399.205-.774.258-1.626.154-2.555-.259-1.96-.839-3.805-1.741-5.534-.903-1.728-1.769-3.495-2.593-5.302-.774-1.857-1.548-3.728-2.322-5.611-.773-1.883-1.445-3.779-2.013-5.689-.259-.824-.503-1.676-.735-2.554-.231-.877-.387-1.767-.464-2.67-.077-.902-.039-1.793.116-2.671.154-.876.464-1.703.929-2.477.412-.67,1.122-1.509,2.129-2.516,1.006-1.006,2.115-1.974,3.328-2.902,1.212-.929,2.45-1.742,3.715-2.438,1.264-.696,2.334-1.07,3.212-1.122.31-.051.632-.064.968-.039.335.027.684.116,1.045.271.258.104.465.284.619.542.051-.051.09-.078.116-.078.025,0,.064-.025.116-.077.31-.206.696-.49,1.161-.852.464-.36.902-.542,1.315-.542.206,0,.438.116.696.348.258.232.438.4.542.503.155.207.297.414.426.619.128.207.244.439.349.697.258.414.58.787.968,1.123.387.336.863.529,1.432.58.36,0,.709-.051,1.045-.155.335-.103.683-.206,1.045-.31.103-.103.18-.155.232-.155.154-.155.31-.296.464-.426.155-.128.31-.271.465-.425.103-.051.205-.128.31-.232l.077-.077c.103-.051.18-.103.232-.155.051-.051.128-.103.232-.155.619-.567,1.238-1.031,1.857-1.393Z"/><path class="cls-8" d="m477.203,104.103c-2.064,4.644-3.819,9.314-5.263,14.01-.362,1.083-.71,2.219-1.045,3.405-.337,1.188-.633,2.388-.891,3.599-.259,1.214-.426,2.427-.503,3.639-.077,1.213-.014,2.387.193,3.521.155.878.399,1.716.735,2.516.335.801.838,1.509,1.51,2.128.412.31.863.672,1.354,1.084.489.414.992.671,1.509.774-.104,0-.271.115-.503.348s-.4.375-.503.426c-1.136.517-2.477,1.07-4.025,1.664-1.548.593-2.993.891-4.334.891-1.084,0-2.013-.298-2.786-.891-.774-.594-1.238-1.715-1.394-3.367-.207-2.631.039-5.302.735-8.011s1.457-5.25,2.283-7.624c.567-1.65,1.147-3.251,1.741-4.799.593-1.548,1.226-3.096,1.896-4.644-1.445,2.116-2.993,4.283-4.644,6.501-1.652,2.22-3.355,4.412-5.108,6.579-1.755,2.168-3.561,4.258-5.418,6.27-1.858,2.013-3.742,3.845-5.65,5.496-.414.361-.865.762-1.354,1.199-.491.439-1.02.852-1.587,1.238-.568.388-1.161.709-1.78.968-.619.258-1.238.387-1.857.387-.929-.052-1.599-.336-2.013-.851-.412-.516-.684-1.135-.812-1.858-.128-.722-.155-1.482-.077-2.283.077-.799.168-1.509.271-2.128.465-3.509,1.329-6.889,2.593-10.14s2.644-6.45,4.142-9.598c.824-1.754,1.65-3.483,2.477-5.187.824-1.702,1.65-3.431,2.477-5.186.31-.722.696-1.496,1.161-2.322.464-.825.852-1.664,1.161-2.515s.503-1.715.58-2.593c.077-.877-.091-1.703-.503-2.477-.052-.051.039-.18.271-.387.232-.206.49-.425.774-.658.283-.232.554-.438.812-.619.258-.18.413-.296.465-.348.515-.31,1.031-.62,1.548-.929.516-.31,1.084-.464,1.703-.464h.31c1.083.104,1.625.542,1.625,1.316s-.154,1.548-.464,2.322c-.672,1.703-1.407,3.394-2.206,5.069-.801,1.678-1.587,3.342-2.361,4.992-1.548,3.303-3.096,6.606-4.644,9.907-1.548,3.304-2.916,6.657-4.103,10.062-.619,1.652-1.238,3.354-1.857,5.108-.619,1.755-1.033,3.535-1.238,5.341-.052.619-.014,1.277.116,1.974.128.696.58,1.148,1.354,1.354.257.104.489.116.696.039.206-.078.438-.09.696-.039.051,0,.025.039-.077.116-.104.077-.232.193-.387.349l.387-.31c.31-.258.619-.555.929-.891.31-.335.593-.631.852-.89,4.128-4.335,8.023-8.85,11.688-13.546,3.663-4.694,7.275-9.468,10.836-14.318.155-.31.31-.632.465-.968.154-.335.31-.684.464-1.045,1.342-2.632,2.76-5.134,4.258-7.508.36-.62.734-1.239,1.122-1.858.387-.619.812-1.212,1.277-1.78.515-.722,1.16-1.354,1.935-1.896.774-.542,1.496-1.07,2.167-1.587.103-.051.283-.167.542-.348.258-.18.528-.36.812-.542.283-.18.554-.348.812-.503.258-.155.413-.232.465-.232-1.084,2.322-2.232,4.58-3.444,6.772-1.213,2.194-2.335,4.451-3.367,6.773Z"/><path class="cls-6" d="m88.293,196.667c15.339,0,27.773,4.712,27.773,10.524s-12.435,10.524-27.773,10.524-27.773-4.712-27.773-10.524,12.434-10.524,27.773-10.524"/><path class="cls-7" d="m57.861,138.858c-.957.041-1.916.053-2.874.039l1.005-.038c1.656-.088,3.217-.25,4.858-.497-.385.037-.771.07-1.158.097-.306.076-.679.078-.997.096.092-.011.185-.023.277-.035.374,0,.476,0,0,0,0,0,.221-.027.331-.041-1.113.064-2.197.09-3.312.081-.014.003-.082,0-.101-.001.02,0,.087-.004.101-.002.248-.006.495-.013.743-.022-.037,0-.075.001-.112.002.596-.023,1.192-.058,1.787-.104.349-.023.702-.054,1.051-.084-.037.003-.074.005-.111.008,2.351-.218,4.481-.602,6.792-1.049,1.22-.206-3.958.907-4.36.966-.64.077-1.004.134-1.64.249.873-.118,2.639-.277.558.011-.724.09-1.431.192-2.162.232-.227.032-.453.063-.678.092m10.468-1.584c-2.172.573-4.374.996-6.592,1.267,1.181-.181,2.358-.401,3.643-.656.357-.061.006.038-.097.067,1.512-.341,2.479-.556,3.047-.678Zm36.062-40.321c-.475,3.211-1.269,6.384-2.38,9.469.242-.914,1.524-5.582,2.38-9.469Zm-.533-17.423c.895,4.246,1.225,8.587.989,12.904-.732.139-2.204,3.071-2.243,3.141-.049,1.24-.141,2.447-.296,3.677-.404,2.562-1.022,5.088-1.847,7.547.354-1.199.66-2.412.917-3.635,1.613-6.303,1.222-4.759.151-.75.424-2.151.681-4.217.851-6.405-.085.16-.164.324-.251.483-.024.764-.139,1.498-.251,2.253.02-.257.037-.514.052-.771.249-1.467.222-1.334.01-.166,0,0,.053-.774.082-1.159-.808,1.532-1.654,3.042-2.568,4.513-.051.426-.273,1.45-.026.314-.303,2.247-.227,1.085-.002-.266-.102.153-.189.317-.294.469-.012.086-.024.171-.037.257.004-.017.008-.034.011-.051-.065.497-.138.994-.219,1.489l.013-.05s-.105.614-.166.917c.009-.033.027-.099.027-.099-.072.389-.155.779-.239,1.166.356-.611,2.332-4.499,2.244-3.774-.467,1.896-1.964,4.734-2.931,6.422-.193.638-.399,1.267-.638,1.89-.225.571-.266.614-.079-.033.123-.425.248-.849.369-1.275-.227.384-.461.759-.701,1.134-.079.124-.157.247-.236.371-.17.535-.62,1.705-.177.266-.187.279-.378.557-.572.832-.056.185-.114.369-.173.554-.763,1.617-.835,1.804-.067.2-.286.812-.624,1.656-1.014,2.422-.361.627.445-1.316.46-1.356.257-.572.501-1.149.733-1.732-2.784,3.853-6.249,7.934-9.337,11.625-3.346,3.883-6.166,6.122-10.704,8.63-.883.466-1.757.89-2.669,1.296-2.276.994-4.344,1.7-6.752,2.32.38-.022.462.014.038.161.711-.207,1.527-.386.259-.025-.3.077-.6.151-.901.221-.516.147-1.035.285-1.556.412-.022-.023-.044-.048-.066-.071-3.251.674-4.869.737-8.059.685-1.982-.027-3.915-.02-5.903-.111.613.069,1.228.125,1.844.169-1.097-.004-2.194-.049-3.288-.134-.361-.069-.722-.143-1.084-.212-.173-.023-.349-.042-.523-.056.325.076.648.148.975.215-.438-.049-.871-.102-1.307-.162.57.105,1.141.198,1.715.281,6.231,1.2,4.69.906.733.1,2.314.307,4.502.428,6.838.442.331,0,.661-.002.991-.006,1.235-.087,2.462-.243,3.691-.333,1.056-.057-2.324.393-2.334.394-.781.06-1.566.169-2.348.245-.344.032-.685.061-1.031.07-4.153-.126-7.424-.168-.711.033-2.486.103-4.876-.024-7.34-.377-1.055-.106-2.149-.226-3.181-.47.06.049.121.097.181.145.908.246,2.79.738.435.239-.088-.017-.176-.033-.264-.05.014.016.028.033.043.049.771.17,1.547.321,2.326.451.998.17,2.001.307,3.008.41-.218-.012-.436-.027-.653-.042l-1.519-.134c-.268-.018-1.101-.155-.864-.099-.304-.038-.609-.086-.912-.136,5.94,1.363-4.499-.877,2.195.658,0,0-.001.009-.001.009.19.016.413.03.601.058,2.648.367,5.014.509,7.687.469.135-.003.271-.007.407-.01-.135.012-.271.023-.407.033-.26.02-.518.038-.778.054.259-.003.519-.002.778-.003,0,0,1.193-.019.633.042.178.012-.094.037-.112.038-.173.015-.347.03-.521.044-.533.036-1.049.068-1.514.095-12.074-.309-24.054-5.041-33.308-14.192-1.203-1.357-2.726-3.062-1.646-1.741-.007-.006-.245-.252-.523-.545-.273-.306-.541-.615-.805-.926l.017.014c.23.223.461.444.696.662.17.197.342.393.515.588-.605-.777-1.187-1.574-1.743-2.388-.38-.425-.718-.97-1.079-1.425.277.397.558.791.845,1.181-.812-.897-1.635-1.907-2.303-2.913-.473-.733.59.594.608.615-.078-.106-.155-.212-.232-.318-1.237-1.788-3.573-5.765-.42-1.121.333.568.753,1.343,1.192,1.823-.185-.301-.366-.604-.544-.909.83,1.268,1.705,2.527,2.666,3.699-.038-.041-.077-.081-.115-.122-.158-.21-.268-.357-.034-.044,0,0-.054-.051-.081-.077,2.23,3.51,1.929,3.094.245.232,1.66,2.077,1.342,1.492.178-.205.594.741,1.233,1.464,1.857,2.18.598.62,1.212,1.224,1.843,1.81-.661-.536-.899-.764-1.482-1.395.671.758,1.344,1.46,2.074,2.162,1.403,1.31,4.924,4.198,1.183.785-.233-.283-.463-.568-.689-.856,3.011,2.892,3.847,3.718.078-.31.025.025.051.051.077.077-.026-.037-.122-.172-.149-.194-.143-.174-.296-.342-.446-.511.103.101.206.202.31.302-.325-.462-.64-.931-.947-1.405.483.414.947.854,1.351,1.346.036.067.587.711.088.561l.077.075c.236.073.503.398.624.598.114.168-.563-.523-.592-.554-.013.013-.058-.018-.064-.012.271.318.83.737,1.181,1.113-.389-.651-.759-1.307-1.125-1.971-.165-.299-.328-.598-.491-.898-.117-.109-.233-.218-.348-.328.048.052.145.154.145.154-.086-.073-1.322-1.169-.654-.624-.296-.281-.586-.569-.866-.867-.03.002-.06.005-.09.008-.058-.091-.114-.182-.173-.273-1.006-1.059-2.816-3.119-.351-.608-.005-.009-.742-1.333-.409-1.097-.024-.026-.049-.052-.072-.078-.653-.846-.632-.799-.079-.072-.398-.415-1.54-1.832-.394-.562.278.34.561.677.85,1.009-.064-.061-.128-.122-.192-.184.59.645,1.15,1.381,1.738,2.049-.083-.02-.167-.04-.25-.061.216.208.434.414.654.618-.1-.172-.181-.354-.279-.528-.024-.026-.278-.302-.077-.142-1.012-1.906-2.104-4.204-3.405-5.909-1.052-1.358-2.015-2.695-2.865-4.18-.429-.764-.779-1.497-1.115-2.306-.288-.711-.532-1.4-.751-2.134-.267-.569-.603-1.251-.788-1.844-.394-1.054-.748-2.123-1.06-3.204-.196-.834-.367-1.674-.514-2.518.086.376.177.751.272,1.125.321,1.872.323,1.844.07.253.173.673.36,1.343.544,2.013,1.802,4.626-.496-2.608-.657-3.803.154,1.464-.029-.039-.073-.467.303,1.527-.603-4.647-.651-5.556-.011-.376-.019-.75-.023-1.126-.003-4.365.365-7.922,1.352-12.177.23-.818.438-1.645.673-2.46.068-.076.999-2.557,1.111-2.832.336-.812.685-1.603,1.087-2.385.361-.71.741-1.41,1.14-2.1-.356.437-.696.924-1.024,1.382-.167.299-.349.643-.016.052-.444.974-.624,1.189-.073.083-.161.216-.313.442-.465.666-.394.897-1.455,3.34-.423.632-.317.539-.507.884-.712,1.465-.203.573-.454,1.125-.7,1.681.168-.598.353-1.154.591-1.727.151-.356.172-.378-.012-.005-.019.025-.155.323-.16.321,0,0,.091-.286.096-.3-.515.866-.62,1.251-.965,2.218.009-.034.018-.068.027-.102-.15.299-.251.622-.349.941.034-.137.068-.275.103-.412-.125.274-.247.55-.366.826-.138.607-.27,1.214-.391,1.824-.65,2.515-1.084,5.084-1.297,7.673.02-1.107.078-2.212.177-3.314.989-4.497,1.643-7.839.074-.7.056-.448.118-.891.185-1.338-.214.991-.379,1.983-.573,2.976-.258,1.227.593-3.954.681-4.335,1.439-5.444-.403.819-.265-.404-.121.287-.237.577-.36.863.173-.052.346-.103.519-.152-.157.493-.745,2.655-.708,2.178-.29,1.191-.862,4.059-.267.73-.356.25.666-3.48-.145-1.148-.007.042-.389,2.792-.363,1.958.057-.496.122-.991.195-1.484-.251.71-.539,1.395-.594,2.157-.457,2.751-.423,2.575-.028.336-.121,1.398-.175,2.775-.27,4.17-.104,1.12-.019-2.493-.019-2.504.118-1.158.482-3.036-.144-.641-.161,1.729-.228,3.466-.201,5.203-.09-1.19-.136-2.383-.139-3.576.01-.133.031-.265.042-.398-.196.852-.366,1.709-.521,2.569-.006.533-.004,1.061.006,1.593.026,1.129.086,2.228.184,3.353-.161-1.124-.302-2.219-.383-3.353-.01-.035-.016-.254-.016-.309-.008.058-.028.269-.042.309-.039.29-.076.58-.116.87.188,1.695.322,3.406.522,5.087.016-.291.035-.582.057-.873.073.823.118,1.232.114,2.064.006.038.011.076.017.113-.009-.037-.017-.074-.026-.112.005.347.004.694.008,1.041.338,1.279.624,2.524.949,3.798.042-.106.06-.088.137-.093-.091-.447-.16-1.009-.285-1.434.073.444.148.889.231,1.332-.446-1.421-1.549-6.054-.291-1.608-.062-.422-.002-.087.033.108.166.56.338,1.109.518,1.665.087.438.181.876.281,1.312-.149-.384-.292-.77-.431-1.158.107.613.194,1.28.374,1.874-.01-.036-.022-.072-.032-.107.503,2.596-.496-.868-.574-1.532-.634-3.025-.849-3.867-.12-.318-.296-.905-.544-1.814-.766-2.739.014.443.044.885.07,1.328.008.037.017.075.025.112-.007-.018-.014-.036-.021-.054v.013c-.349-1.238-.649-2.486-.9-3.743-.257-1.672-.683-4.584-.353-3.108-.006-.374.013-.751.036-1.124-.011-.087-.066-.593.009-.178.063-.851.144-1.688.247-2.535.074-.596.158-1.185.253-1.778-.081-2.752.079-5.895.686-8.58.567-2.206-.211,4.692-.229,5.241-.04.498-.073.996-.098,1.495.133-.643.28-1.283.449-1.917.131-2.584.49-5.497,1.237-7.975.564-1.757-.105,1.591-.123,1.706.044-.071.24-.372.313-.15-.184.528-.359,1.059-.524,1.593-.131.989-.243,1.963-.38,2.954.252-.827.527-1.646.818-2.46.054-.252.11-.505.168-.756-.051.234-.1.468-.147.703.021-.071.043-.142.065-.213-.008.036-.016.072-.024.108.257-.694.53-1.383.828-2.061.077-.299.156-.598.239-.895-.07.263-.137.527-.202.792.025-.069.05-.137.075-.205l-.014.052c.153-.352.311-.703.473-1.051.193-.751.405-1.497.635-2.238-.234.683-.461,1.367-.694,2.05-.431,1.215,1.155-3.849,1.286-4.192.065-.164.133-.327.202-.49.162-.377.27-.724.408-1.112-.148.365-.293.733-.446,1.096-.194.453-.195.371-.064-.027.011-.085.182-.485.223-.585.256-.601.489-1.067.733-1.694-.197.456-.652,1.41-.17.29.096-.202.194-.403.293-.603.063-.155.128-.311.193-.466,2.009-3.871,3.407-6.702.26-.621.15-.344.298-.685.452-1.027-.265.493-.528.988-.792,1.481-.472,1.05-.909,2.095-1.356,3.156-.048.114-.097.228-.148.34,0,0-.114.293-.108.19-.375,1.1-.706,2.217-1.084,3.314-.109.301-.062.072-.035-.069-.113.309-.223.618-.33.929-.012.04.063-.209.023-.107.009.002-.034.048-.034.047-.03.06-.025.152-.054.213.009.003.026.008.026.008-.482,1.656-.948,3.141-.04.103l-.11.311c-.45.941-.012-.115.082-.377-.144-.043.154-.69.181-.748.124-.471.314-.94.475-1.401-.021.07-.042.14-.063.21.098-.274.198-.548.301-.821-.161.367-.459,1.114-.459,1.114.309-1.162.665-2.252,1.101-3.373.666-1.651.847-1.931.191.07.861-2.505,2.209-5.234,3.637-7.471.165-.249.333-.497.503-.742.426-.704.868-1.4,1.33-2.081.236-.386.471-.77.718-1.149-.732.929-1.427,1.883-2.095,2.859-.098.182-.285.554-.285.554-.323.529-.635,1.063-.937,1.604.101-.224.204-.447.308-.67.78-1.209.817-1.281.053-.1,0,0,.188-.371.282-.556-1.58,2.297,2.694-4.129,3.11-4.645.818-.96,1.673-1.889,2.563-2.783-.296.208.187-.318.326-.472.575-.631,1.174-1.226,1.771-1.834.588-.546.638-.597.078-.082,0,0,.281-.31.425-.462-.647.61-1.278,1.237-1.89,1.882.775-.888,1.581-1.747,2.419-2.577.387-.337.785-.662,1.181-.988-.067.046-.939.73-.48.314-.103.011.465-.487.479-.5-1.545,1.273-2.915,2.479-4.268,3.963-.152.171-.302.343-.45.518.153-.17.308-.337.465-.503.926-.964.989-.956.096.095-.233.275-.467.55-.698.827.317-.289.071-.05-.072.088-.374.455-.738.91-1.1,1.375-.239.242-.475.487-.709.734-.458.514-.885,1.162-1.293,1.724-.667.94-1.299,1.903-1.897,2.888.118-.216.238-.431.36-.645-.011.016-.022.031-.032.047.275-.476.558-.947.849-1.413.151-.25.555-.853.453-.725,1.459-2.213,2.001-3.323,3.842-5.198,1.26-1.246,2.522-2.343,3.91-3.448.376-.382.812-.796,1.24-1.118.077-.058.216-.158.068-.005-.15.151-.299.303-.447.455,1.704-1.315,3.37-2.689,5.188-3.847,6.935-4.873,4.205-2.742-.197.349.249-.147.499-.291.75-.433-.146.093-.292.187-.437.282,1.837-.982,3.583-1.788,5.522-2.552.381-.146.761-.288,1.145-.426-.375.158-.749.317-1.123.477-1.991.862-4.489,1.95-6.368,3.032,1.075-.527,2.152-1.025,3.259-1.481-1.588.844-3.072,1.737-4.581,2.719-.03.023-.06.047-.09.071.014-.013.029-.026.043-.039-.866.565-1.667,1.094-2.46,1.757.097-.092.194-.184.292-.275-.876.698-1.729,1.426-2.555,2.183-.112.144-.325.389-.455.515.662-.607,1.321-1.182,2.012-1.753,2.213-1.631,4.565-3.074,7.023-4.306-1.133.649-2.239,1.344-3.316,2.084-.25.141-5.09,3.201-3.712,2.308.008-.006.038-.031.05-.028.993-.646,1.979-1.248,3.012-1.827-1.864,1.299-3.554,2.657-5.266,4.152-.239.239-.475.481-.709.725.109-.131.218-.261.328-.391-.525.478-.987.956-1.479,1.465-.028.019-.126.129-.158.161-4.823,4.682-3.542,3.43-.498.536-.603.648-1.176,1.305-1.744,1.985-1.128,1.829,2.649-2.248,2.744-2.339,4.246-3.98,7.33-6.059,12.285-8.947.167-.129.335-.255.504-.382.762-.296,1.524-.577,2.295-.85,2.999-1.046,2.314-1.035-.115-.27-.293.097-.581.2-.87.309.273-.145.544-.289.819-.43,1.706-.867,3.443-1.637,5.267-2.221.02-.006.322-.099.329-.075,1.161-.395,2.34-.734,3.527-1.043.505-.095,1.011-.181,1.519-.259.003,0,1.41-.319.961-.16-.334.092-.666.188-.998.287-.241.052-.483.107-.723.164.998-.155,2-.278,3.006-.371,2.038-.334-3.555.34.445-.162.071-.06.141-.12.213-.18.125-.103.251-.204.378-.306.548.021,1.105.068,1.648.136.481-.073.973-.134,1.458-.161-.791-.039-1.224,0-.179-.086-.503-.013-.395-.009,0,0,.599.031,1.192.073,1.79.124.014-.001.082.007.101.009.015,0,2.915,0,1.705.116,1.315.063,2.627.18,3.932.35-.18-.133.853-.029.874-.027-.037-.005-.964-.12-.451-.106.097.003.193.006.29.01.269.018.537.042.805.067-.065-.084.082-.124.137-.137-1.325-.007-2.632-.104-3.952-.125.351-.018.703-.033,1.054-.044,1.943.153,2.176.157.234-.005.932-.014,1.923.009,2.847.118.017.002.295.036.111.036.487.163,1.056.401,1.544.513-.038-.007-.075-.014-.113-.021.091.033.181.066.272.099.942.123,1.88.284,2.81.478-.271-.086-.544-.169-.817-.251.451.071.902.147,1.351.23.559.15,1.12.421,1.672.55-.462-.17-.926-.336-1.393-.493,1.448.313,6.047,1.635,1.555.544,2.666.931,1.041.478-.798.103.049.033.37.252.147.293-.545-.203-1.094-.395-1.646-.578-1.186-.202-2.384-.408-3.57-.605.028.055.057.11.085.165-1.21-.314-1.886-.473-3.133-.603.052.006.163.084.163.084-.38-.043-.76-.081-1.141-.115.698.113,1.392.242,2.083.386,1.145.104,2.376.383,3.502.629-.538-.086-1.077-.163-1.618-.231-2.707-.559-2.548-.521-.336-.042-.242-.035-.486-.065-.728-.094.746.193,1.488.404,2.224.635.276.042.552.087.827.134.255-.112.51-.221.767-.328.085.037.177.07.264.103,1.529.234,2.913.675,4.366,1.188-.392-.116-.785-.226-1.181-.332-1.997-.7-1.784-.618-.218-.051-.902-.241-1.802-.463-2.707-.691,3.126,1.427.936.736-.605.35.01.003.046.011.052.022,0,0-.581-.117-.872-.177.457.153.913.314,1.365.482.325.065.65.133.973.205,0,.003-.002.006-.003.009.053.015.106.03.159.045.48.041,1.374.344,1.859.504-.159-.043-.319-.085-.479-.126-.736-.257-.8-.274-.107-.024,0,0-.355-.095-.533-.136.509.15,1.015.31,1.518.478,1.032.256,2.236.71,3.23,1.097.412.163.829.331,1.234.509.579.261.964.43,1.559.664-.751-.338-2.451-1.199-.478-.308.595.282,1.058.536,1.681.806-.519-.248-1.31-.671-.236-.157.183.097.365.194.547.293.155.07.309.142.463.214,1.284.698,2.493,1.447,3.722,2.231-1.01-.687-2.046-1.336-3.106-1.944.359.171.713.346,1.067.527-.503-.297-1.008-.592-1.513-.887-1.153-.574-2.33-1.091-3.48-1.66,0,0-.301-.131-.195-.119-.384-.148-.767-.293-1.153-.435-.729-.267-1.462-.526-2.187-.803-.341-.135.017-.041.122-.014-.502-.182-1.007-.355-1.514-.52.197.049.394.099.591.151-.063-.022-.052-.017-.102-.045-.003.009-.055-.009-.055-.009.056.02-.014.011-.055-.009-.003.009-.055-.009-.055-.009-.402-.136-.806-.267-1.211-.393.512.122.784.219,1.27.393-.439-.179-.575-.213-.997-.336-.679-.24-.938-.31-.161-.041-.723-.186-2.031-.596-.414-.165.355.104.709.212,1.062.324-.036-.008-.072-.017-.108-.025.193.063.387.124.581.183.181-.089.595.132.747.211.469.143.935.352,1.393.532-.052-.017-.105-.034-.158-.052.259.115.495.222.764.315-.348-.167-1.054-.485-1.054-.485.556.169,1.098.352,1.645.552.66.25,5.319,2.243,1.644.884,2.513.977,5.228,2.454,7.445,3.997.245.177.488.356.73.538.712.467,1.412.953,2.099,1.457-.027-.024-.614-.487-.368-.358-.125-.116-.251-.232-.378-.347.157.138.315.274.472.411.435.267.887.624,1.294.935-.115-.127-.233-.254-.355-.374-.196-.15-.394-.298-.593-.445.186.132.371.266.556.401-.008-.007-.038-.031-.038-.043-.057-.048-.181-.14-.181-.14,0,0,.136.091.143.095-.128-.129.081.055.093.066.246.166.894.646.168.154.412.398.652.633,1.096.997.006.005,1.448,1.178.837.773.326.307.646.616.965.932.235.234.468.469.698.707-.243-.227-.488-.448-.737-.669-.416-.369-.773-.738-1.166-1.132-.047-.032-.095-.064-.137-.103.201.201.595.613.595.613-.205-.19-.43-.379-.645-.559.131.139.255.28.382.422.302.274.599.552.895.834.294.281.583.565.871.853.059.075.117.15.175.225.587.482,1.154,1,1.656,1.571-.506-.614-1.05-1.213-1.534-1.843-.013-.014-.026-.027-.039-.041.013.014.026.027.039.041-.674-.943,1.99,1.909,2.185,2.117.521.606.629.722.08.082,0,0,.328.326.486.493-.591-.679-1.2-1.342-1.828-1.988.854.805,1.679,1.641,2.473,2.506.402.502,1.773,2.267.501.562.623.711,1.77,2.157.358.31-.2-.26-.404-.518-.609-.775-.076-.088-.152-.175-.228-.263.014.013.029.026.043.04-.809-1.005-1.662-1.979-2.545-2.92-.222-.214-.461-.413-.69-.618,2.044,2.023.845.981-.458-.199.281.331.048.074-.087-.076-.164-.146-.328-.291-.494-.436-.281-.245-.566-.493-.853-.73-.236-.251-.475-.499-.716-.745-1.331-1.193-3.041-2.415-4.538-3.402.229.139.457.28.684.423-.031-.023-.061-.046-.092-.068,1.773,1.122,3.464,2.346,5.063,3.707-.556-.532-1.124-1.05-1.704-1.556,1.939,1.462-.124-.155-.637-.586-1.112-.834-2.362-1.551-3.532-2.302-2.318-1.575-4.77-2.95-7.324-4.105,1.118.429,2.221.898,3.305,1.408,1.463.804,2.719,1.787,4.097,2.685-1.118-.853-2.273-1.646-3.465-2.392,4.368,2.234-4.129-2.255-4.757-2.556-1.068-.532,2.069.838,2.164.883-.248-.23.718.351.733.36.046.008.078-.002.124.014-.084-.054-.099-.063,0,0,.002-.003.003-.005.005-.008.425.254.84.476,1.267.72,1.27.743,2.506,1.542,3.705,2.395,2.076,1.281,4.101,2.761,5.895,4.415.33.343.655.688.977,1.04.175.192.349.386.522.581.605.581,1.937,1.869,2.265,2.487.64.776,1.257,1.572,1.849,2.385,2.488,3.409,4.235,6.426,5.919,10.286.878,2.413,1.658,4.521,2.338,6.323Z"/><path class="cls-4" d="m92.236,25.387c5.794-8.625,15.812-7.202,20.145-14.136,0,0-3.299,1.662-6.219,2.754,0,0,10.895-5.839,13.317-14.005,0,0,7.169,14.243-.19,22.313-7.359,8.071-23.402,9.406-23.402,9.406,0,0-4.751.563-4.608-.434.142-.997.38-3.75.958-5.899"/><path class="cls-5" d="m93.257,30.436c4.539-9.86,18.322-6.912,22.295-18.651,0,0-.136,4.21-3.347,7.05,0,0,8.806-4.723,7.738-13.293,0,0,4.294,8.41-2.731,16.821-7.025,8.412-16.14,8.744-16.14,8.744,0,0-7.834,1.756-7.815-.672"/><path class="cls-4" d="m68.49,116.924s-5.297-1.5-7.362-4.135c0,0,.38,1.531,2.967,3.572,0,0-6.243-2.291-8.57-9.364-2.326-7.074,1.97-5.056,1.97-5.056,0,0,9.993.617,11.299,1.994,1.306,1.377,12.415,14.931-.306,12.989"/><path class="cls-4" d="m95.221,45.94s.747,3.671-1.045,7.73c0,0,1.662-2.896,1.875-4.866,0,0-.332,9.4-5.317,12.771s-6.813-1.092-6.955-1.923c-.143-.831-3.157-7.24-2.825-9.353.332-2.113.024-5.08,1.163-5.816,1.139-.736,13.246-1.258,13.104,1.456"/><path class="cls-4" d="m100.111,179.782s-2.122,7.883-6.609,12.085c0,0,3.715-2.113,5.032-5.946-1.322,7.036-5.616,6.09-4.273,12.807,0,0-.119-1.65.653-3.537,0,0-.285,2.481.925,6.018,0,0,1.899-1.531,2.67-2.979,0,0-.309,4.783-5.65,7.726-5.341,2.944-8.735,1.187-8.735.926s-.261-5.911-.19-7.027c.071-1.116,5.507-17.661,5.935-18.136.427-.475,3.181,2.753,3.181,2.753l4.083-1.436s1.484-1.104,2.978-3.255"/><path class="cls-4" d="m25.233,94.857c6.102-.342,7.17-.807,21.508.836,0,0-4.498-2.409-8.842-2.089,0,0,8.688-2.16,14.338-1.673,5.649.486,5.353,2.682,5.459,3.027.107.344-3.133,5.044-5.127,5.305-1.994.261-8.213.226-9.02.403-.807.178-14.194.178-14.243.012-.05-.166-5.865-3.791-4.073-5.821"/><path class="cls-4" d="m104.76,125.356c-2.541,6.142-3.387,14.478-2.977,16.737,0,0,.926-8.047,3.584-13.436,0,0-1.424,7.216-.902,12.035.522,4.819-1.187,12.581-3.133,15.952,0,0,5.459-8.878,5.744-16.854,0,0,1.424,24.165-6.03,31.999-7.453,7.834-19.607-4.605-20.652-6.599-1.044-1.994-9.78-18.706-8.45-26.017,1.329-7.311-1.188-12.654,5.008-16.581,6.196-3.928,16.545-15.987,17.115-17.696.46-1.38,9.468-.22,13.168,3.537-1.193,1.858-1.057,6.107-1.057,6.107,0,0-2.781,2.721-5.554,5.045,0,0,3.246-.837,5.857-3.27-1.351,6.221-4.13,7.083-5.128,14.753,0,0,.747-2.912,3.405-5.712"/><path class="cls-5" d="m89.033,132.946s6.073-7.023,13.119-11.107c-5.025,5.712-4.855,9.793-7.766,15.31,0,0,3.379-3.775,5.001-5.871-3.217,10.82-12.565,19.594-9.12,35.233,0,0-.665-10.872,5.127-18.8,0,0-4.51,12.438-1.709,22.456,0,0,8-4.415,11.157-14.1,0,0-.095,12.533-11.252,21.649-11.157,9.115-17.423-7.311-17.518-7.833-.095-.522-10.065-10.302-10.065-10.302,0,0-.237-12.676-.237-13.436s6.884-19.607,6.884-19.607c0,0,9.123-7.537,18.218-11.456,1.36-4.217,2.844-7.552,3.434-7.913,1.472-.902,6.907.166,8.094.166s8.997-.617,7.834,1.187c-.698,1.083-.721,2.197-1.442,3.038-1.964,2.626-6.709,7.084-8.166,8.027,0,0,1.429-1.682,2.837-3.861-4.332,3.456-9.089,6.634-14.429,17.222"/><path class="cls-5" d="m104.398,165.95s-2.01,10.299-9.732,17.949c3.045-2.257,5.444-4.117,5.444-4.117,0,0-3.239,7.607-7.655,11.809,0,0,1.534-2.144,2.492-4.756-3.574,4.619-5.963,5.702-5.167,12.451-.846-1.613-1.135-3.517-1.135-3.517.107,7.157,2.885,6.343,2.885,6.343h0c.608-.018,1.405-.213,2.438-.617,0,0-1.389,1.377-3.858,2.089,0,0,4.451.024,6.92-2.374,0,0-1.923,4.676-10.516,6.575-8.593,1.899-3.418-6.884-3.418-6.884,0,0,.095-9.827.522-11.109.427-1.282,1.804-4.51,4.178-6.789,2.374-2.279,12.607-9.206,16.601-17.053"/><path class="cls-5" d="m55.701,104.085s.704,5.223,4.668,8.214c0,0-.772-1.318-1.709-4.985,0,0,6.837,8.878,16.593,8.807l-1.487-6.32s-6.062-6.783-7.605-7.187c-1.543-.403-4.223-1.744-6.314-1.614-2.091.13-5.175.783-4.146,3.085"/><path class="cls-5" d="m28.871,97.32s14.053-2.184,23.026.118c0,0-4.19-2.362-9.127-3.786,0,0,8.759-2.457,15.987.878,7.228,3.335,6.35,5.044,6.35,5.044l-9.649,2.041s-6.409.095-9.614.261c-3.204.166-10.278.498-12.557.38-2.279-.118-6.623-2.564-4.415-4.937"/><path class="cls-5" d="m87.83,45.662s2.451.689,2.54,2.7c0,0,.202-.789-.047-1.412,0,0,1.193,1.262.371,2.673-.822,1.41,1.676-.121,1.89-.406.214-.285,1.217-.807.837-1.78-.38-.973.107-1.329-1.163-1.804-1.27-.475-3.911-.807-3.994-.76-.083.047-.581.136-.433.789m6.991-2.189s.146.844.242,2.138c-.594,1.307-2.053,4.181-1.716,5.594,0,0,.018,3.632-3.056,6.706,0,0,1.727-.861,2.469-1.958,0,0-.469,2.38-2.606,3.97,0,0,2.824-1.677,4.575-4.173-.884,2.794-2.935,7.116-7.247,7.625-6.433.76-5.745-6.575-5.745-6.575,0,0-2.208-7.833-1.97-8.925.237-1.092,3.489-6.219,5.436-6.219s5.626.261,9.617,1.818Z"/><path class="cls-4" d="m93.174,61.296s2.499.111,5.524,1.373c.07-.026.139-.052.209-.077,0,0,10.047,2.483,11.993,11.765,0,0-2.079-3.862-4.802-5.634,0,0,3.143,7.885-3.409,15.907,4.638-3.2,6.378-6.982,6.549-8.436,0,0,.361,9.206-6.148,13.507-.678.448-1.254.774-1.742,1-2.204,3.71,4.494-2.534,4.615-2.614.062-.041,1.107-.881,2.291-1.866-.714,1.049-1.554,2.181-1.717,2.912,3.228-2.219,8.105-6.306,7.712-11.975,0,0,3.038,9.733-3.181,17.281,0,0,3.704-2.198,6.71-6.648-1.748,12.173-12.158,18.165-17.128,19.264-2.104.465-3.864.34-5.239.287,2.989,2.608-2.229,7.029-2.704,8.359-.457,1.279-12.864,14.155-14.565,6.886-.823.511-1.327.807-1.327.807,0,0,.332-1.35.26-3.479.218-.016.429-.029.641-.047-1.276-5.934-5.969-12.08-8.88-15.443-1.161-.953-2.481-1.886-3.982-2.781,0,0-4.463-6.456-6.409-8.593-1.947-2.136,10.634-3.133,12.248-3.893,1.614-.759,15.477-9.068,17.851-12.201,1.529-2.019,4.102-6.854,5.74-10.04-.282-.697.267-1.575,1.211-2.387.2-.399.313-.629.313-.629,0,0-4.937,1.947-2.633-2.602"/><path class="cls-5" d="m76.236,115.505c-1.992-4.421-5.204-8.545-7.4-11.083-.633-.519-1.313-1.033-2.044-1.537-2.21-2.081-5.093-6.517-5.728-8.505-.57-1.786-.197-2.811,2.358-3.831,3.058-.592,6.481-1.022,7.271-1.394.899-.423,5.592-3.184,9.988-6.091-1.349,2.968-3.475,7.28-3.475,7.28,0,0,3.834,2.006,4.724,1.828.89-.178,4.356-.902,8.08-2.068,0,0-3.825,3.082-8.489,4.721,0,0,5.329-.154,9.198-4.178,3.869-4.023,6.979-5.128,8.605-5.484,0,0-4.309,1.816-7.05,5.97,0,0,2.219-2.119,3.756-3.009,0,0-2.092,2.18-3.182,5.564.244-.357.5-.734.772-1.133,2.967-4.344,7.109-5.614,7.109-5.614-3.385,3.137-5.246,6.338-5.412,6.647-.166.309-.463,2.409-.569,2.706-.091.253.786,2.254-.498,4.392.225.394.38.624.38.624,0,0-3.751,9.495-3.703,10.635.047,1.139-9.543,5.982-9.875,5.982s-4.515-1.778-4.811-2.414l-.004-.008Z"/><path class="cls-4" d="m71.667,99.556s6.602,3.14,9.879,12.901c0,0-.073-4.024-2.107-7.22,0,0,2.586,2.223,3.08,5.695,0,0,.086-7.162-5.768-10.721,0,0,1.409,1.867,1.78,3.182-1.846-2.341-4.059-3.131-6.864-3.836"/><path class="cls-3" d="m53.743,139.756c0-.143-4.818-11.526,4.13-17.637-7.593,2.928-9.12,11.451-4.13,17.637"/><path class="cls-3" d="m140.17,112.958s13.388,3.988,23.263,12.486c-7.694-8.722-12.068-10.192-23.263-12.486"/><path class="cls-3" d="m53.929,154.998s-2.089,4.843,15.999,17.898c-4.292-2.558-21.465-11.482-15.999-17.898"/><path class="cls-3" d="m14.465,95.265s4.41-1.843,9.636-1.329c-3.211-1.329-6.993-1.067-9.636,1.329"/><path class="cls-3" d="m81.194,150.082s5.496-2.095,9.341-8.504c0,0-3.323,3.489-8,4.296-4.676.807-1.543,1.234-1.341,4.207"/><path class="cls-2" d="m91.063,46.772c2.638,2.164-3.648,5.183-6.368,5.863,0,0,4.461-2.081,5.275-3.678,0,0-1.497,1.498-4.776,2.143l-.397-1.793.577-.345-.862-.233c-.461-4.338,5.031-3.202,6.55-1.957m13.335,119.178s-6.644,8.969-14.837,11.375c0,0-11.318-7.113-15.732-21.815,0,0-.625,5.571,1.092,11.337-2.532-3.141-4.626-6.638-5.433-10.213-1.687-7.473.303-12.136,2.008-14.565,4.435,6.564,9.697,8.012,9.697,8.012,0,0,9.479-7.089,12.735-17.434,0,0-8.161,7.006-12.406,8.532,0,0-3.916-10.633,7.377-20.566,0,0-2.638,3.627-2.968,8.985,0,0,4.08-7.027,15.393-16.754,0,0-1.534-1.911-4.307-3.771,0,0,25.431,3.353,62.116,21.851,3.743,1.887,7.409,1.766,10.112.488,0,0-19.109-14.397-54.702-24.677,7.538-1.078,16.68-5.642,22.739-4.494,8.761,1.66,16.085,10.559,31.298,4.888-17.764,2.102-24.111-7.336-30.582-8.614-6.471-1.277-20.525,4.699-20.525,4.699,4.909-4.15,16.984-11.659,23.512-11.947,7.95-.351,24.399,15.95,37.897,4.611-14.755,7.336-27.078-8.408-38.124-8.243-11.045.165-26.789,14.137-26.789,14.137,9.067-13.271,5.193-25.059,2.885-27.284,4.646,10.675-3.289,31.394-14.894,25.246.978-2.254,2.61-5.169,5.111-7.33,0,0-3.009.886-6.121,3.462,3.549-5.736,10.37-9.771,11.135-16.545-2.846,6.596-10.465,7.652-16.039,15.392,0,0,1.236-4.369,4.678-7.769,0,0-4.245,2.823-8.119,9.933-3.874,7.11-8.531,6.038-8.531,6.038,0,0,4.389,3.709,3.503,9.15,0,0-.315-4.217-2.72-6.141,0,0,1.875,3.648,1.299,7.852,0,0-1.653,1.685-5.682,2.925-.749-4.43-3.621-7.03-3.621-7.03,1.393,2.584,2.007,6.942,2.007,6.942h0c-.445-1.855-2.572-8.615-11.055-15.782,5.269,1.796,8.598,5.607,8.598,5.607-4.781-7.604-14.031-10.788-14.031-10.788,2.84.112,8.602.715,15.09,3.517,0,0-2.164-3.05-6.182-4.472.037-.012.081-.025.131-.04.02-.001,11.35-.757,18.598-4.546,0,0-3.98,1.002-8.263,1.434,7.466-2.533,15.49-6.143,11.607-9.243-1.533-1.224-3.072-.931-.617-3.386,1.333-1.333,3.679-3.13,5.323-4.588l-3.792,1.401c6.674-5.498,12.791-8.442,6.557-12.041-6.812-3.933-6.575-3.002-5.726-7.484.254-1.341.453-2.918.467-4.605,0,0-1.092,5.234-3.318,7.81-2.225,2.576-5.172,3.256-5.172,3.256,0,0,.01-1.659-.917-2.504-.927-.845-1.319-.917-1.319-.917,0,0-.216-2.668-.083-3.534,0,0,2.488,2.004,3.91,1.978,1.422-.026,2.803-3.838,2.803-3.838,0,0-.69.556-1.412.886,0,0,2.169-2.184,2.602-3.689,0,0,.082,1.319-.02,1.947,4.699-2.988,2.367-12.951-1.399-16.063,1.32.093,2.45-.975,2.407-2.305,0,0,14.872.126,24.434-6.345,0,0-3.832,1.694-9.731,2.472,11.226-4.031,22.486-11.806,13.077-27.535,4.902,12.555-2.647,20.473-14.407,24.917,0,0,4.946-2.39,7.006-7.769,0,0-3.565,5.688-13.23,7.584,0,0,5.234-2.658,8.367-6.388-5.344,3.808-9.412,2.058-15.909,8.881,3.956-9.61,15.874-9.063,19.03-16.905-3.641,5.509-14.16,4.963-20.051,11.856,1.185-3.481,3.322-5.767,3.322-5.767-6.203,4.204-6.427,11.575-6.427,11.575-2.462-1.384-4.088.754-3.436,2.51l-.039.067s-7.851-.7-13.374,5.07c0,0-13.832,2.849-11.483,18.84,0,0-.483-11.25,8.923-15.517-2.853,4.726-2.59,9.325-2.056,11.762,0,0-.227-6.327,3.936-11.52,0,0-5.605,10.16,2.143,16.053,0,0-1.412-2.442-1.762-5.121,0,0,1.741,2.36,3.781,3.38,0,0-2.833-2.916-2.267-6.698,0,0,1.979,2.03,3.05,4.585,1.071,2.555,1.154,3.38,2.617,4.966,1.463,1.587,3.709,3.833,4.06,5.605,0,0,3.04-.268,5.172-1.401-3.982,4.76-8.513,3.155-17.05,13.612,3.749.284,6.026,2.263,6.026,2.263-4.623-2.135-8.899-.958-9.311-.836-3.032.934-5.767,2.907-7.658,5.342,4.536.688,6.83,3.532,6.83,3.532-8.286-4.334-16.249-.92-22.649,4.279,0,0,11.108.227,16.61,6.595,0,0-7.396-4.125-13.373-4.29,0,0,5.692,1.869,9.764,4.469-1.48.165-3.315.472-5.315,1.036,0,0-1.277-.845-7.315.124,0,0-.144-5.378-5.688-5.976,0,0,4.142,1.504,4.142,5.873l-4.492-.103s.082-5.399-6.677-5.543c0,0,4.554.927,5.605,5.502,0,0-2.566-.175-5.564.268,0,0-1.916-4.018-6.017-4.987,0,0-7.14-.776-11.014,1.474,2.431.344,4.095,1.636,4.095,1.636-6.574-2.431-8.92,1.772-8.92,1.772l9.787.536-16.576,1.072-.093-.535c-.402-2.314-3.915-1.705-3.513.61l.715,4.122c.387,2.229,3.742,1.771,3.531-.471l28.066-1.664-.103,3.256c-.04,1.272,2.556,1.382,2.556-.191l.205-2.962,17.392-.535s1.38,4.719,4.883,7.563c0,0-1.207-3.195-1.578-6.533,0,0,8.503-2.843,15.303,3.71,0,0-3.091-1.752-6.945-1.875,0,0,8.181,2.411,10.84,9.479,0,0-3.565,2.164-12.838-3.07,0,0,2.473,3.4,6.43,4.595-10.704,6.754-15.425,10.652-13.777,19.274.135.594,2.063,8.603,8.687,14.077,0,0-3.062-1.066-5.97-3.868-.907,1.941-2.659,6.336-1.531,9.28,3.552,9.274,20.494,19.973,28.854,27.673-2.373-.902-5.122-2.208-5.122-2.208.723,3.075,2.815,12.362,1.214,19.788-1.601,7.426-.987,9.89,7.713,9.552,8.699-.337,8.984-8.057,8.936-8.611-.653,1.94-6.319,5.516-13.045,4.137h.003c2.447-.179,6.573-1.188,8.706-2.314,0,0-3.419.772-7.019.72-.356-3.624-.904-7.948-.273-11.781,1.58-9.6,15.591-14.417,18.533-26.691Z"/></svg>